<svg width="103" height="70" viewBox="0 0 103 70" fill="none" xmlns="http://www.w3.org/2000/svg">
<rect x="1" y="3.1709" width="88.8277" height="55.3138" rx="4" stroke="white" stroke-width="2"/>
<rect x="-0.619857" y="0.619857" width="1.23971" height="7.85152" transform="matrix(-1 0 0 1 45.0429 59.2559)" stroke="white" stroke-width="1.23971"/>
<rect x="-1" y="1" width="3.78533" height="7.09123" transform="matrix(-1 0 0 1 45.9356 59.2559)" stroke="white" stroke-width="2"/>
<rect x="30.1664" y="68.7607" width="29.7531" height="0.826476" stroke="white" stroke-width="0.826476"/>
<path d="M49.6483 32.0002C49.9652 42.6584 39.8997 35.4674 31.7696 40.0976C40.9735 34.8558 40.2488 22.4103 49.6483 32.0002Z" stroke="white" stroke-width="2"/>
<path d="M52.4931 23.7455C47.4348 26.2529 48.2988 29.8557 49.3631 31.3436C50.8336 32.9638 54.0869 32.3171 58.2146 30.4673M52.4931 23.7455L58.2146 30.4673M52.4931 23.7455L58.8435 20.0307M58.2146 30.4673C60.2902 29.5372 62.5868 28.303 64.9891 26.8998M64.9891 26.8998C71.2506 23.2425 78.2297 18.4379 83.882 14.881C93.5887 8.77274 96.6165 3.24514 96.917 1.24488C92.0936 0.950203 83.0244 5.74905 79.0927 8.18531L58.8435 20.0307M64.9891 26.8998L58.8435 20.0307" stroke="white" stroke-width="2"/>
<path d="M8.7428 40.2466H32.5426" stroke="white" stroke-width="2"/>
<path d="M1 57.7764H89.9123V59.0823H1V57.7764Z" fill="white" stroke="white" stroke-width="2"/>
<path d="M1 54.4705H89.9123V55.7764H1V54.4705Z" fill="white" stroke="white" stroke-width="2"/>
</svg>
